<svg xmlns="http://www.w3.org/2000/svg" width="92" height="25" viewBox="0 0 92 25">
  <g id="Group_699" data-name="Group 699" transform="translate(22311 15814)">
    <path id="Path_5966" data-name="Path 5966" d="M17.543,4.8c.178-.005.684-.016.872-.005.689,0,1.75-.065,2.466,0V7.865H18.415c-.894,0-1.228.215-1.228,1.233v2.461h3.075v3.075H17.187v8.616h-3.08V14.633H11.647V11.559h2.461L14.07,8.839c0-1.885.382-3.026,1.939-3.7A4.52,4.52,0,0,1,17.543,4.8ZM.57,1.71V25.715h24V1.71Z" transform="translate(-22311.57 -15815.71)" fill="#fff"/>
    <g id="Group_698" data-name="Group 698" transform="translate(-22283.721 -15819.72)">
      <path id="Path_5968" data-name="Path 5968" d="M28.942,6.72H8.491A1.752,1.752,0,0,0,6.72,8.449V28.991A1.752,1.752,0,0,0,8.491,30.72H28.942a1.758,1.758,0,0,0,1.778-1.729V8.449A1.758,1.758,0,0,0,28.942,6.72Zm-15.1,20.451H10.276V15.72h3.563ZM12.06,14.151a2.063,2.063,0,1,1,2.063-2.063A2.064,2.064,0,0,1,12.06,14.151ZM27.171,27.171H23.616V21.6c0-1.326-.028-3.035-1.854-3.035-1.847,0-2.132,1.444-2.132,2.938v5.667H16.067V15.72h3.417v1.563h.049A3.742,3.742,0,0,1,22.9,15.435c3.6,0,4.271,2.368,4.271,5.451Z" transform="translate(0 0)" fill="#fff"/>
    </g>
    <path id="Path_5970" data-name="Path 5970" d="M16,13.024A2.976,2.976,0,1,0,18.976,16,2.975,2.975,0,0,0,16,13.024Zm11.916-2.94a7.785,7.785,0,0,0-.5-2.712,4.79,4.79,0,0,0-2.784-2.784,7.785,7.785,0,0,0-2.712-.5C20.368,4,19.912,4,16,4s-4.368,0-5.916.084a7.785,7.785,0,0,0-2.712.5A4.79,4.79,0,0,0,4.588,7.372a7.785,7.785,0,0,0-.5,2.712C4,11.632,4,12.088,4,16s0,4.368.084,5.916a8.291,8.291,0,0,0,.5,2.724,4.8,4.8,0,0,0,2.784,2.772,7.785,7.785,0,0,0,2.712.5C11.632,28,12.088,28,16,28s4.368,0,5.916-.084a7.785,7.785,0,0,0,2.712-.5,4.8,4.8,0,0,0,2.784-2.772,7.966,7.966,0,0,0,.5-2.724C28,20.368,28,19.912,28,16S28,11.632,27.916,10.084Zm-3.048,9.6a6.861,6.861,0,0,1-.468,2.16A4.609,4.609,0,0,1,21.844,24.4a6.875,6.875,0,0,1-2.172.42H12.328a6.875,6.875,0,0,1-2.172-.42A4.467,4.467,0,0,1,7.6,21.844a6.543,6.543,0,0,1-.408-2.172V12.328A6.543,6.543,0,0,1,7.6,10.156,4.244,4.244,0,0,1,8.632,8.584,4.328,4.328,0,0,1,10.156,7.6a6.874,6.874,0,0,1,2.172-.42h7.344a6.874,6.874,0,0,1,2.172.42A4.467,4.467,0,0,1,24.4,10.156a6.875,6.875,0,0,1,.42,2.172V16c0,2.472.084,2.724.048,3.672Zm-1.92-8.928a2.842,2.842,0,0,0-1.692-1.692A4.718,4.718,0,0,0,19.6,8.8H12.4a4.882,4.882,0,0,0-1.656.312,2.857,2.857,0,0,0-1.692,1.632A5.16,5.16,0,0,0,8.8,12.4v7.2a5.191,5.191,0,0,0,.312,1.656A2.842,2.842,0,0,0,10.8,22.948a5.164,5.164,0,0,0,1.6.312h7.2a4.882,4.882,0,0,0,1.656-.312,2.842,2.842,0,0,0,1.692-1.692A4.882,4.882,0,0,0,23.26,19.6V12.4a4.609,4.609,0,0,0-.312-1.656ZM16,20.584A4.568,4.568,0,0,1,11.428,16h0A4.583,4.583,0,1,1,16,20.584Zm4.8-8.268a1.08,1.08,0,0,1,0-2.148h0a1.08,1.08,0,0,1,0,2.148Z" transform="translate(-22247 -15817)" fill="#fff"/>
  </g>
</svg>
