<svg xmlns="http://www.w3.org/2000/svg" width="1033.127" height="21.453" viewBox="0 0 1033.127 21.453">
  <g id="Title_-_Bord" data-name="Title - Bord" transform="translate(119.999)">
    <g id="Layer_1" transform="translate(0.001 0)">
      <g id="Group_29" data-name="Group 29">
        <g id="Group_25" data-name="Group 25" transform="translate(358.713)">
          <path id="Path_18" data-name="Path 18" d="M219.719,21.117c-.14,0-.281,0-.409-.012-.737.012-7.323-.105-11.826-8.13a22.76,22.76,0,0,0-5.252-6.4l-.269-.211A8.541,8.541,0,0,0,193.973,4.9a7.739,7.739,0,0,0-5.252,5.428,5.308,5.308,0,0,0-.14.62,6.756,6.756,0,0,0,1.334,5.416c1.755,2.3,4.071,3.322,6.387,2.8a5.407,5.407,0,0,0,4.094-4.258,4,4,0,0,0-.76-3.147,3.719,3.719,0,0,0-3.767-1.72,3.119,3.119,0,0,0-2.386,2.468,2.331,2.331,0,0,0,1.837,2.737l-.351,1.766a4.149,4.149,0,0,1-3.275-4.854,4.967,4.967,0,0,1,3.778-3.9,5.52,5.52,0,0,1,5.65,2.41,5.8,5.8,0,0,1,1.088,4.55,7.228,7.228,0,0,1-5.474,5.673c-2.995.69-6.083-.608-8.258-3.462A8.488,8.488,0,0,1,186.8,10.59a7.516,7.516,0,0,1,.175-.737,9.56,9.56,0,0,1,6.457-6.679,10.393,10.393,0,0,1,9.709,1.778l.246.2a24.233,24.233,0,0,1,5.72,6.925c4.141,7.381,10.153,7.206,10.212,7.206h.117a3.907,3.907,0,0,0,2.831-.912,3.992,3.992,0,0,0,1.4-2.726,2.99,2.99,0,0,0-2.7-3.217,2.082,2.082,0,0,0-1.626.608,1.955,1.955,0,0,0-.655,2.094,1.555,1.555,0,0,0,1.345,1.029l-.152,1.8a3.4,3.4,0,0,1-2.924-2.223,3.725,3.725,0,0,1,1.1-4,3.935,3.935,0,0,1,3.065-1.111,4.8,4.8,0,0,1,4.351,5.159,5.707,5.707,0,0,1-2.035,3.965,5.764,5.764,0,0,1-3.7,1.357Z" transform="translate(-186.647 0.324)" fill="#002642"/>
          <path id="Path_19" data-name="Path 19" d="M224.024,21.114a5.655,5.655,0,0,1-3.7-1.357,5.752,5.752,0,0,1-2.035-3.965,4.81,4.81,0,0,1,4.351-5.159,3.993,3.993,0,0,1,3.065,1.111,3.7,3.7,0,0,1,1.1,4,3.419,3.419,0,0,1-2.924,2.223l-.152-1.8a1.573,1.573,0,0,0,1.345-1.029,1.978,1.978,0,0,0-.667-2.094,2.124,2.124,0,0,0-1.626-.608,2.991,2.991,0,0,0-2.7,3.217,3.955,3.955,0,0,0,4.234,3.638h.117c.246,0,6.094.129,10.212-7.194a24.026,24.026,0,0,1,5.743-6.948l.222-.175a10.393,10.393,0,0,1,9.709-1.778,9.56,9.56,0,0,1,6.457,6.679q.105.368.175.737a8.5,8.5,0,0,1-1.673,6.843c-2.176,2.854-5.264,4.153-8.258,3.462a7.212,7.212,0,0,1-5.474-5.673,5.775,5.775,0,0,1,1.088-4.55,5.561,5.561,0,0,1,5.65-2.41,4.951,4.951,0,0,1,3.778,3.9,4.161,4.161,0,0,1-3.275,4.854l-.351-1.766a2.34,2.34,0,0,0,1.837-2.737,3.119,3.119,0,0,0-2.386-2.468,3.691,3.691,0,0,0-3.767,1.72,4,4,0,0,0-.76,3.147,5.423,5.423,0,0,0,4.094,4.258c2.3.526,4.632-.491,6.387-2.8a6.7,6.7,0,0,0,1.334-5.416c-.047-.211-.094-.421-.14-.62a7.761,7.761,0,0,0-5.252-5.428,8.541,8.541,0,0,0-7.989,1.462l-.246.2A22.64,22.64,0,0,0,236.271,13c-4.5,8.024-11.066,8.141-11.826,8.118-.14,0-.281.012-.409.012Z" transform="translate(-181.278 0.328)" fill="#002642"/>
          <path id="Path_20" data-name="Path 20" d="M219.5,11.492a2.9,2.9,0,0,1-2.9-2.421h0c-.655-3.334,2.024-7.568,2.129-7.744L219.5.11l.772,1.217c.117.175,2.784,4.41,2.129,7.744a2.9,2.9,0,0,1-2.9,2.421Zm-1.111-2.761a1.123,1.123,0,0,0,2.223,0c.316-1.614-.456-3.673-1.111-5.018-.655,1.345-1.427,3.4-1.111,5.018Z" transform="translate(-181.581 -0.11)" fill="#002642"/>
        </g>
        <g id="Group_26" data-name="Group 26" transform="translate(881.483 1.562)">
          <path id="Path_21" data-name="Path 21" d="M431.863,12.7a5.865,5.865,0,0,1-1.111-.105,2.948,2.948,0,0,1,0-5.8h0c3.334-.667,7.568,2.024,7.744,2.141l1.17.76-1.17.76c-.164.105-3.533,2.246-6.633,2.246Zm-.76-4.141a1.153,1.153,0,0,0,0,2.269c1.532.3,3.579-.433,5.018-1.135-1.439-.69-3.486-1.439-5.018-1.135Z" transform="translate(-408.021 -0.555)" fill="#002642"/>
          <path id="Path_22" data-name="Path 22" d="M427.862,11.5h-.234c-.573,0-3.954-.175-6.246-4.27A10.461,10.461,0,0,0,418.89,4.2l-.14-.117a3.769,3.769,0,0,0-3.533-.643,3.409,3.409,0,0,0-2.3,2.375l-.07.281a2.928,2.928,0,0,0,.573,2.328,2.668,2.668,0,0,0,2.7,1.217A2.235,2.235,0,0,0,417.8,7.884a1.521,1.521,0,0,0-.292-1.2,1.374,1.374,0,0,0-1.4-.678,1.09,1.09,0,0,0-.831.866.709.709,0,0,0,.55.831l-.351,1.766a2.518,2.518,0,0,1-1.989-2.936,2.939,2.939,0,0,1,2.223-2.293A3.2,3.2,0,0,1,418.983,5.6a3.319,3.319,0,0,1,.62,2.62,4.04,4.04,0,0,1-3.065,3.17A4.475,4.475,0,0,1,411.965,9.5a4.725,4.725,0,0,1-.912-3.755,3.952,3.952,0,0,1,.094-.4,5.254,5.254,0,0,1,3.509-3.626,5.62,5.62,0,0,1,5.252.959l.117.094a12.528,12.528,0,0,1,2.948,3.568,6.129,6.129,0,0,0,3.9,3.24,2.131,2.131,0,0,1-.831-1.053,2.321,2.321,0,0,1,.655-2.468,2.424,2.424,0,0,1,1.883-.678,2.857,2.857,0,0,1,2.585,3.041,3.253,3.253,0,0,1-1.17,2.269,3.288,3.288,0,0,1-2.141.784Zm.526-4.316a.643.643,0,0,0-.409.175c-.2.2-.281.4-.222.561a.324.324,0,0,0,.269.211L427.9,9.686a1.447,1.447,0,0,0,.9-.351,1.494,1.494,0,0,0,.538-1.041,1.023,1.023,0,0,0-.924-1.111h-.035Z" transform="translate(-410.968 -1.445)" fill="#002642"/>
          <path id="Path_23" data-name="Path 23" d="M416.4,18.548a5.95,5.95,0,0,1-1.743-.269,5.276,5.276,0,0,1-3.509-3.626c-.035-.129-.07-.269-.094-.4a4.725,4.725,0,0,1,.912-3.755A4.5,4.5,0,0,1,416.538,8.6a4.04,4.04,0,0,1,3.065,3.17,3.329,3.329,0,0,1-.62,2.62,3.212,3.212,0,0,1-3.275,1.369,2.922,2.922,0,0,1-2.223-2.293,2.512,2.512,0,0,1,1.989-2.936l.351,1.766a.709.709,0,0,0-.55.831,1.09,1.09,0,0,0,.831.866,1.4,1.4,0,0,0,1.4-.678,1.521,1.521,0,0,0,.292-1.2,2.235,2.235,0,0,0-1.684-1.755,2.668,2.668,0,0,0-2.7,1.217,2.885,2.885,0,0,0-.573,2.328c.023.094.035.187.058.281a3.4,3.4,0,0,0,2.3,2.386,3.8,3.8,0,0,0,3.533-.643l.117-.094a10.764,10.764,0,0,0,2.515-3.053c2.3-4.118,5.708-4.235,6.258-4.27a3.356,3.356,0,0,1,2.363.772,3.3,3.3,0,0,1,1.17,2.281,2.843,2.843,0,0,1-2.585,3.041,2.467,2.467,0,0,1-1.883-.678,2.273,2.273,0,0,1-.655-2.468,2.239,2.239,0,0,1,.831-1.053,6.156,6.156,0,0,0-3.9,3.24A12.481,12.481,0,0,1,420,17.237l-.105.082a5.612,5.612,0,0,1-3.509,1.24Zm11.522-8.258.129,1.556a.31.31,0,0,0-.269.211c-.058.164.012.363.222.561a.635.635,0,0,0,.444.175,1.04,1.04,0,0,0,.924-1.111,1.494,1.494,0,0,0-.538-1.041,1.447,1.447,0,0,0-.9-.351Z" transform="translate(-410.968 -0.247)" fill="#002642"/>
        </g>
        <path id="Path_5951" data-name="Path 5951" d="M0,0H452.18V1.8H0Z" transform="translate(433.534 9.803)" fill="#002642"/>
        <g id="Group_28" data-name="Group 28" transform="translate(0 1.562)">
          <g id="Group_27" data-name="Group 27" transform="translate(-120)">
            <path id="Path_24" data-name="Path 24" d="M7.8,12.7c-3.1,0-6.469-2.141-6.632-2.246L-.01,9.7l1.181-.76c.175-.117,4.41-2.807,7.744-2.141h0a2.948,2.948,0,0,1,0,5.8A5.865,5.865,0,0,1,7.8,12.7ZM3.546,9.7c1.439.69,3.486,1.439,5.018,1.135a1.153,1.153,0,0,0,0-2.269h0c-1.544-.3-3.579.433-5.018,1.135Z" transform="translate(0.01 -0.555)" fill="#002642"/>
            <path id="Path_25" data-name="Path 25" d="M13.092,11.5a3.323,3.323,0,0,1-3.31-3.065,2.843,2.843,0,0,1,2.585-3.041,2.512,2.512,0,0,1,1.883.678A2.273,2.273,0,0,1,14.9,8.54a2.239,2.239,0,0,1-.831,1.053,6.116,6.116,0,0,0,3.884-3.24,12.481,12.481,0,0,1,2.971-3.591l.105-.082a5.62,5.62,0,0,1,5.252-.959A5.276,5.276,0,0,1,29.8,5.346c.035.129.07.269.094.4A4.7,4.7,0,0,1,28.977,9.5,4.5,4.5,0,0,1,24.4,11.394a4.056,4.056,0,0,1-3.065-3.17,3.329,3.329,0,0,1,.62-2.62,3.212,3.212,0,0,1,3.275-1.369,2.922,2.922,0,0,1,2.223,2.293,2.512,2.512,0,0,1-1.989,2.936L25.117,7.7a.709.709,0,0,0,.55-.831A1.09,1.09,0,0,0,24.836,6a1.382,1.382,0,0,0-1.4.678,1.521,1.521,0,0,0-.292,1.2,2.235,2.235,0,0,0,1.684,1.755,2.668,2.668,0,0,0,2.7-1.217A2.885,2.885,0,0,0,28.1,6.095a2.462,2.462,0,0,0-.07-.281,3.388,3.388,0,0,0-2.3-2.375,3.8,3.8,0,0,0-3.533.643l-.117.094A10.764,10.764,0,0,0,19.56,7.229c-2.3,4.118-5.673,4.281-6.258,4.27H13.08Zm-.526-4.316H12.53a1.04,1.04,0,0,0-.924,1.111,1.494,1.494,0,0,0,.538,1.041,1.447,1.447,0,0,0,.9.351L12.916,8.13a.31.31,0,0,0,.269-.211c.058-.164-.012-.363-.222-.561a.643.643,0,0,0-.409-.175Z" transform="translate(1.671 -1.445)" fill="#002642"/>
            <path id="Path_26" data-name="Path 26" d="M24.553,18.549a5.544,5.544,0,0,1-3.509-1.24l-.117-.094a12.529,12.529,0,0,1-2.948-3.568,6.129,6.129,0,0,0-3.9-3.24,2.154,2.154,0,0,1,.831,1.041,2.3,2.3,0,0,1-.655,2.468,2.439,2.439,0,0,1-1.883.678,2.85,2.85,0,0,1-2.585-3.041,3.349,3.349,0,0,1,1.17-2.281A3.258,3.258,0,0,1,13.312,8.5h.012c.573,0,3.954.175,6.246,4.27a10.462,10.462,0,0,0,2.492,3.03l.14.117a3.769,3.769,0,0,0,3.533.643,3.409,3.409,0,0,0,2.3-2.375l.07-.281a2.892,2.892,0,0,0-.585-2.328,2.66,2.66,0,0,0-2.7-1.217,2.235,2.235,0,0,0-1.684,1.755,1.51,1.51,0,0,0,.292,1.2,1.393,1.393,0,0,0,1.4.678,1.09,1.09,0,0,0,.831-.866.709.709,0,0,0-.55-.831l.351-1.766a2.518,2.518,0,0,1,1.989,2.936,2.922,2.922,0,0,1-2.223,2.293A3.212,3.212,0,0,1,21.957,14.4a3.319,3.319,0,0,1-.62-2.62A4.04,4.04,0,0,1,24.4,8.606,4.475,4.475,0,0,1,28.975,10.5a4.725,4.725,0,0,1,.912,3.755,3.958,3.958,0,0,1-.094.4,5.292,5.292,0,0,1-3.509,3.638,5.566,5.566,0,0,1-1.731.269Zm-11.51-8.258a1.383,1.383,0,0,0-.9.351,1.517,1.517,0,0,0-.538,1.041,1.023,1.023,0,0,0,.924,1.111.617.617,0,0,0,.445-.175c.2-.2.281-.4.211-.561a.324.324,0,0,0-.269-.211l.129-1.556Z" transform="translate(1.672 -0.249)" fill="#002642"/>
          </g>
          <path id="Path_5952" data-name="Path 5952" d="M-240,0H212.35V1.8H-240Z" transform="translate(147.255 8.241)" fill="#002642"/>
        </g>
      </g>
    </g>
  </g>
</svg>
