<svg xmlns="http://www.w3.org/2000/svg" width="438.03" height="18.34" viewBox="0 0 438.03 18.34">
  <g id="Title_-_Border" data-name="Title - Border" transform="translate(0.01 -0.11)">
    <g id="Layer_1">
      <g id="Group_29" data-name="Group 29">
        <g id="Group_25" data-name="Group 25">
          <path id="Path_18" data-name="Path 18" d="M214.92,18.44c-.12,0-.24,0-.35-.01-.63.01-6.26-.09-10.11-6.95a19.457,19.457,0,0,0-4.49-5.47l-.23-.18a7.3,7.3,0,0,0-6.83-1.25,6.616,6.616,0,0,0-4.49,4.64,4.536,4.536,0,0,0-.12.53,5.775,5.775,0,0,0,1.14,4.63c1.5,1.97,3.48,2.84,5.46,2.39a4.623,4.623,0,0,0,3.5-3.64,3.423,3.423,0,0,0-.65-2.69,3.18,3.18,0,0,0-3.22-1.47,2.666,2.666,0,0,0-2.04,2.11,1.993,1.993,0,0,0,1.57,2.34l-.3,1.51a3.547,3.547,0,0,1-2.8-4.15,4.246,4.246,0,0,1,3.23-3.33,4.719,4.719,0,0,1,4.83,2.06,4.955,4.955,0,0,1,.93,3.89,6.179,6.179,0,0,1-4.68,4.85c-2.56.59-5.2-.52-7.06-2.96a7.256,7.256,0,0,1-1.43-5.85,6.424,6.424,0,0,1,.15-.63,8.173,8.173,0,0,1,5.52-5.71,8.885,8.885,0,0,1,8.3,1.52l.21.17a20.716,20.716,0,0,1,4.89,5.92c3.54,6.31,8.68,6.16,8.73,6.16h.1a3.34,3.34,0,0,0,2.42-.78,3.412,3.412,0,0,0,1.2-2.33,2.556,2.556,0,0,0-2.31-2.75,1.78,1.78,0,0,0-1.39.52,1.671,1.671,0,0,0-.56,1.79,1.329,1.329,0,0,0,1.15.88l-.13,1.54a2.907,2.907,0,0,1-2.5-1.9,3.184,3.184,0,0,1,.94-3.42,3.364,3.364,0,0,1,2.62-.95,4.106,4.106,0,0,1,3.72,4.41,4.879,4.879,0,0,1-1.74,3.39,4.928,4.928,0,0,1-3.16,1.16Z" fill="maroon"/>
          <path id="Path_19" data-name="Path 19" d="M223.19,18.44a4.835,4.835,0,0,1-3.16-1.16,4.918,4.918,0,0,1-1.74-3.39,4.112,4.112,0,0,1,3.72-4.41,3.414,3.414,0,0,1,2.62.95,3.167,3.167,0,0,1,.94,3.42,2.923,2.923,0,0,1-2.5,1.9l-.13-1.54a1.345,1.345,0,0,0,1.15-.88,1.691,1.691,0,0,0-.57-1.79,1.816,1.816,0,0,0-1.39-.52,2.557,2.557,0,0,0-2.31,2.75,3.381,3.381,0,0,0,3.62,3.11h.1c.21,0,5.21.11,8.73-6.15a20.539,20.539,0,0,1,4.91-5.94l.19-.15a8.885,8.885,0,0,1,8.3-1.52,8.173,8.173,0,0,1,5.52,5.71q.09.315.15.63a7.265,7.265,0,0,1-1.43,5.85c-1.86,2.44-4.5,3.55-7.06,2.96a6.165,6.165,0,0,1-4.68-4.85,4.937,4.937,0,0,1,.93-3.89,4.754,4.754,0,0,1,4.83-2.06,4.233,4.233,0,0,1,3.23,3.33,3.557,3.557,0,0,1-2.8,4.15l-.3-1.51a2,2,0,0,0,1.57-2.34,2.666,2.666,0,0,0-2.04-2.11,3.156,3.156,0,0,0-3.22,1.47,3.423,3.423,0,0,0-.65,2.69,4.636,4.636,0,0,0,3.5,3.64c1.97.45,3.96-.42,5.46-2.39a5.729,5.729,0,0,0,1.14-4.63c-.04-.18-.08-.36-.12-.53a6.634,6.634,0,0,0-4.49-4.64,7.3,7.3,0,0,0-6.83,1.25l-.21.17a19.354,19.354,0,0,0-4.51,5.48c-3.85,6.86-9.46,6.96-10.11,6.94-.12,0-.24.01-.35.01Z" fill="maroon"/>
          <path id="Path_20" data-name="Path 20" d="M219.06,9.84a2.482,2.482,0,0,1-2.48-2.07h0c-.56-2.85,1.73-6.47,1.82-6.62l.66-1.04.66,1.04c.1.15,2.38,3.77,1.82,6.62a2.482,2.482,0,0,1-2.48,2.07Zm-.95-2.36a.96.96,0,0,0,1.9,0,7.643,7.643,0,0,0-.95-4.29,7.643,7.643,0,0,0-.95,4.29Z" fill="maroon"/>
        </g>
        <g id="Group_26" data-name="Group 26">
          <path id="Path_21" data-name="Path 21" d="M431.35,11.83a5.014,5.014,0,0,1-.95-.09,2.521,2.521,0,0,1,0-4.96h0c2.85-.57,6.47,1.73,6.62,1.83l1,.65-1,.65a12.454,12.454,0,0,1-5.67,1.92Zm-.65-3.54a.986.986,0,0,0,0,1.94,7.687,7.687,0,0,0,4.29-.97,7.772,7.772,0,0,0-4.29-.97Z" fill="maroon"/>
          <path id="Path_22" data-name="Path 22" d="M425.41,10.04h-.2c-.49,0-3.38-.15-5.34-3.65a8.944,8.944,0,0,0-2.13-2.59l-.12-.1a3.222,3.222,0,0,0-3.02-.55,2.914,2.914,0,0,0-1.97,2.03l-.06.24a2.5,2.5,0,0,0,.49,1.99,2.281,2.281,0,0,0,2.31,1.04,1.911,1.911,0,0,0,1.44-1.5,1.3,1.3,0,0,0-.25-1.03,1.175,1.175,0,0,0-1.2-.58.932.932,0,0,0-.71.74.606.606,0,0,0,.47.71l-.3,1.51a2.153,2.153,0,0,1-1.7-2.51,2.512,2.512,0,0,1,1.9-1.96A2.739,2.739,0,0,1,417.82,5a2.837,2.837,0,0,1,.53,2.24,3.454,3.454,0,0,1-2.62,2.71,3.825,3.825,0,0,1-3.91-1.62,4.039,4.039,0,0,1-.78-3.21,3.381,3.381,0,0,1,.08-.34,4.491,4.491,0,0,1,3-3.1,4.8,4.8,0,0,1,4.49.82l.1.08a10.71,10.71,0,0,1,2.52,3.05,5.24,5.24,0,0,0,3.33,2.77,1.822,1.822,0,0,1-.71-.9,1.984,1.984,0,0,1,.56-2.11,2.072,2.072,0,0,1,1.61-.58,2.442,2.442,0,0,1,2.21,2.6,2.781,2.781,0,0,1-1,1.94,2.811,2.811,0,0,1-1.83.67Zm.45-3.69a.55.55,0,0,0-.35.15c-.17.17-.24.34-.19.48a.277.277,0,0,0,.23.18l-.11,1.33a1.237,1.237,0,0,0,.77-.3,1.277,1.277,0,0,0,.46-.89.875.875,0,0,0-.79-.95h-.03Z" fill="maroon"/>
          <path id="Path_23" data-name="Path 23" d="M415.61,17.09a5.087,5.087,0,0,1-1.49-.23,4.51,4.51,0,0,1-3-3.1c-.03-.11-.06-.23-.08-.34a4.039,4.039,0,0,1,.78-3.21,3.843,3.843,0,0,1,3.91-1.62,3.454,3.454,0,0,1,2.62,2.71,2.846,2.846,0,0,1-.53,2.24,2.746,2.746,0,0,1-2.8,1.17,2.5,2.5,0,0,1-1.9-1.96,2.148,2.148,0,0,1,1.7-2.51l.3,1.51a.606.606,0,0,0-.47.71.932.932,0,0,0,.71.74,1.2,1.2,0,0,0,1.2-.58,1.3,1.3,0,0,0,.25-1.03,1.911,1.911,0,0,0-1.44-1.5,2.281,2.281,0,0,0-2.31,1.04,2.466,2.466,0,0,0-.49,1.99c.02.08.03.16.05.24a2.91,2.91,0,0,0,1.97,2.04,3.249,3.249,0,0,0,3.02-.55l.1-.08a9.2,9.2,0,0,0,2.15-2.61,6.412,6.412,0,0,1,5.35-3.65,2.869,2.869,0,0,1,2.02.66,2.822,2.822,0,0,1,1,1.95,2.43,2.43,0,0,1-2.21,2.6,2.109,2.109,0,0,1-1.61-.58,1.944,1.944,0,0,1-.56-2.11,1.914,1.914,0,0,1,.71-.9,5.262,5.262,0,0,0-3.33,2.77,10.67,10.67,0,0,1-2.54,3.07l-.09.07a4.8,4.8,0,0,1-3,1.06Zm9.85-7.06.11,1.33a.265.265,0,0,0-.23.18c-.05.14.01.31.19.48a.543.543,0,0,0,.38.15.889.889,0,0,0,.79-.95,1.277,1.277,0,0,0-.46-.89,1.237,1.237,0,0,0-.77-.3Z" fill="maroon"/>
        </g>
        <rect id="Rectangle_11" data-name="Rectangle 11" width="164.12" height="1.54" transform="translate(250.61 8.49)" fill="maroon"/>
        <g id="Group_28" data-name="Group 28">
          <g id="Group_27" data-name="Group 27">
            <path id="Path_24" data-name="Path 24" d="M6.67,11.83A12.454,12.454,0,0,1,1,9.91L-.01,9.26,1,8.61c.15-.1,3.77-2.4,6.62-1.83h0a2.521,2.521,0,0,1,0,4.96A5.014,5.014,0,0,1,6.67,11.83ZM3.03,9.26a7.772,7.772,0,0,0,4.29.97.986.986,0,0,0,0-1.94h0a7.668,7.668,0,0,0-4.29.97Z" fill="maroon"/>
            <path id="Path_25" data-name="Path 25" d="M12.61,10.04A2.841,2.841,0,0,1,9.78,7.42a2.43,2.43,0,0,1,2.21-2.6,2.147,2.147,0,0,1,1.61.58,1.943,1.943,0,0,1,.56,2.11,1.914,1.914,0,0,1-.71.9,5.228,5.228,0,0,0,3.32-2.77,10.669,10.669,0,0,1,2.54-3.07l.09-.07a4.8,4.8,0,0,1,4.49-.82,4.51,4.51,0,0,1,3,3.1c.03.11.06.23.08.34a4.021,4.021,0,0,1-.78,3.21,3.843,3.843,0,0,1-3.91,1.62,3.467,3.467,0,0,1-2.62-2.71A2.846,2.846,0,0,1,20.19,5a2.746,2.746,0,0,1,2.8-1.17,2.5,2.5,0,0,1,1.9,1.96,2.148,2.148,0,0,1-1.7,2.51l-.3-1.51a.606.606,0,0,0,.47-.71.932.932,0,0,0-.71-.74,1.181,1.181,0,0,0-1.2.58,1.3,1.3,0,0,0-.25,1.03,1.911,1.911,0,0,0,1.44,1.5,2.281,2.281,0,0,0,2.31-1.04,2.466,2.466,0,0,0,.49-1.99,2.1,2.1,0,0,0-.06-.24,2.9,2.9,0,0,0-1.97-2.03,3.249,3.249,0,0,0-3.02.55l-.1.08a9.2,9.2,0,0,0-2.15,2.61c-1.97,3.52-4.85,3.66-5.35,3.65H12.6Zm-.45-3.69h-.03a.889.889,0,0,0-.79.95,1.277,1.277,0,0,0,.46.89,1.237,1.237,0,0,0,.77.3l-.11-1.33a.265.265,0,0,0,.23-.18c.05-.14-.01-.31-.19-.48a.55.55,0,0,0-.35-.15Z" fill="maroon"/>
            <path id="Path_26" data-name="Path 26" d="M22.41,17.09a4.739,4.739,0,0,1-3-1.06l-.1-.08a10.71,10.71,0,0,1-2.52-3.05,5.24,5.24,0,0,0-3.33-2.77,1.842,1.842,0,0,1,.71.89,1.966,1.966,0,0,1-.56,2.11,2.085,2.085,0,0,1-1.61.58,2.436,2.436,0,0,1-2.21-2.6,2.863,2.863,0,0,1,1-1.95A2.785,2.785,0,0,1,12.8,8.5h.01c.49,0,3.38.15,5.34,3.65a8.944,8.944,0,0,0,2.13,2.59l.12.1a3.222,3.222,0,0,0,3.02.55,2.914,2.914,0,0,0,1.97-2.03l.06-.24a2.472,2.472,0,0,0-.5-1.99,2.274,2.274,0,0,0-2.31-1.04,1.911,1.911,0,0,0-1.44,1.5,1.291,1.291,0,0,0,.25,1.03,1.191,1.191,0,0,0,1.2.58.932.932,0,0,0,.71-.74.606.606,0,0,0-.47-.71l.3-1.51a2.153,2.153,0,0,1,1.7,2.51,2.5,2.5,0,0,1-1.9,1.96,2.746,2.746,0,0,1-2.8-1.17,2.837,2.837,0,0,1-.53-2.24,3.454,3.454,0,0,1,2.62-2.71,3.825,3.825,0,0,1,3.91,1.62,4.039,4.039,0,0,1,.78,3.21,3.383,3.383,0,0,1-.08.34,4.524,4.524,0,0,1-3,3.11,4.759,4.759,0,0,1-1.48.23Zm-9.84-7.06a1.182,1.182,0,0,0-.77.3,1.3,1.3,0,0,0-.46.89.875.875,0,0,0,.79.95.527.527,0,0,0,.38-.15c.17-.17.24-.34.18-.48a.277.277,0,0,0-.23-.18l.11-1.33Z" fill="maroon"/>
          </g>
          <rect id="Rectangle_12" data-name="Rectangle 12" width="164.12" height="1.54" transform="translate(23.29 8.49)" fill="maroon"/>
        </g>
      </g>
    </g>
  </g>
</svg>
