<svg xmlns="http://www.w3.org/2000/svg" width="1485.636" height="30.85" viewBox="0 0 1485.636 30.85">
  <g id="Title_-_Borde" data-name="Title - Borde" transform="translate(0.001)">
    <g id="Layer_1" transform="translate(-0.001 0)">
      <g id="Group_29" data-name="Group 29">
        <g id="Group_25" data-name="Group 25" transform="translate(688.388)">
          <path id="Path_18" data-name="Path 18" d="M234.205,2.668c-.2,0-.4,0-.589.017-1.06-.017-10.53.151-17.006,11.691a32.728,32.728,0,0,1-7.553,9.2l-.387.3a12.283,12.283,0,0,1-11.489,2.1,11.129,11.129,0,0,1-7.553-7.8,7.628,7.628,0,0,1-.2-.892A9.714,9.714,0,0,1,191.345,9.5c2.523-3.314,5.854-4.777,9.184-4.02a7.776,7.776,0,0,1,5.887,6.123,5.757,5.757,0,0,1-1.093,4.525c-1.5,2-3.482,2.91-5.416,2.473a4.485,4.485,0,0,1-3.431-3.549,3.352,3.352,0,0,1,2.641-3.936l-.5-2.54a5.967,5.967,0,0,0-4.71,6.981,7.143,7.143,0,0,0,5.433,5.6c2.977.673,6.005-.622,8.125-3.465a8.335,8.335,0,0,0,1.564-6.543,10.394,10.394,0,0,0-7.872-8.158c-4.306-.992-8.747.875-11.876,4.979a12.205,12.205,0,0,0-2.405,9.84,10.8,10.8,0,0,0,.252,1.06,13.747,13.747,0,0,0,9.285,9.6,14.945,14.945,0,0,0,13.961-2.557l.353-.286a34.846,34.846,0,0,0,8.225-9.958c5.955-10.614,14.6-10.362,14.685-10.362h.168a5.618,5.618,0,0,1,4.071,1.312,5.74,5.74,0,0,1,2.019,3.919A4.3,4.3,0,0,1,236,15.166a2.994,2.994,0,0,1-2.338-.875,2.811,2.811,0,0,1-.942-3.011,2.236,2.236,0,0,1,1.934-1.48l-.219-2.59a4.889,4.889,0,0,0-4.205,3.2,5.356,5.356,0,0,0,1.581,5.753,5.659,5.659,0,0,0,4.407,1.6,6.907,6.907,0,0,0,6.257-7.418,8.206,8.206,0,0,0-2.927-5.7,8.289,8.289,0,0,0-5.315-1.951Z" transform="translate(-186.647 -2.651)" fill="#fff"/>
          <path id="Path_19" data-name="Path 19" d="M226.541,2.705a8.132,8.132,0,0,0-5.315,1.951,8.272,8.272,0,0,0-2.927,5.7,6.917,6.917,0,0,0,6.257,7.418,5.742,5.742,0,0,0,4.407-1.6,5.326,5.326,0,0,0,1.581-5.753,4.916,4.916,0,0,0-4.205-3.2l-.219,2.59a2.262,2.262,0,0,1,1.934,1.48,2.844,2.844,0,0,1-.959,3.011,3.055,3.055,0,0,1-2.338.875,4.3,4.3,0,0,1-3.886-4.626,5.688,5.688,0,0,1,6.089-5.231h.168c.353,0,8.764-.185,14.685,10.345a34.549,34.549,0,0,0,8.259,9.992l.32.252a14.945,14.945,0,0,0,13.961,2.557,13.747,13.747,0,0,0,9.285-9.6q.151-.53.252-1.06a12.22,12.22,0,0,0-2.405-9.84c-3.129-4.1-7.569-5.971-11.876-4.979a10.371,10.371,0,0,0-7.872,8.158,8.3,8.3,0,0,0,1.564,6.543c2.119,2.826,5.147,4.121,8.125,3.465a7.12,7.12,0,0,0,5.433-5.6,5.984,5.984,0,0,0-4.71-6.981l-.5,2.54a3.365,3.365,0,0,1,2.641,3.936,4.485,4.485,0,0,1-3.431,3.549c-1.951.437-3.919-.454-5.416-2.473a5.757,5.757,0,0,1-1.093-4.525,7.8,7.8,0,0,1,5.887-6.123c3.314-.757,6.661.706,9.184,4.02a9.637,9.637,0,0,1,1.918,7.788c-.067.3-.135.606-.2.892a11.16,11.16,0,0,1-7.553,7.8,12.283,12.283,0,0,1-11.489-2.1l-.353-.286a32.556,32.556,0,0,1-7.586-9.218C237.677,2.84,228.24,2.671,227.147,2.705c-.2,0-.4-.017-.589-.017Z" transform="translate(-165.072 -2.688)" fill="#fff"/>
          <path id="Path_20" data-name="Path 20" d="M220.812.11a4.176,4.176,0,0,0-4.172,3.482h0c-.942,4.794,2.91,10.883,3.061,11.135l1.11,1.749,1.11-1.749c.168-.252,4-6.341,3.061-11.135A4.176,4.176,0,0,0,220.812.11Zm-1.6,3.97a1.615,1.615,0,0,1,3.2,0c.454,2.321-.656,5.282-1.6,7.216-.942-1.934-2.052-4.895-1.6-7.216Z" transform="translate(-166.29 14.373)" fill="#fff"/>
        </g>
        <g id="Group_26" data-name="Group 26" transform="translate(1440.131 2.271)">
          <path id="Path_21" data-name="Path 21" d="M433.41,6.689a8.434,8.434,0,0,0-1.6.151,4.24,4.24,0,0,0,0,8.343h0c4.794.959,10.883-2.91,11.135-3.078l1.682-1.093-1.682-1.093c-.235-.151-5.08-3.23-9.538-3.23Zm-1.093,5.955a1.658,1.658,0,0,1,0-3.263c2.2-.437,5.147.622,7.216,1.632-2.069.992-5.013,2.069-7.216,1.632Z" transform="translate(-399.125 2.175)" fill="#fff"/>
          <path id="Path_22" data-name="Path 22" d="M435.261,1.445h-.336c-.824,0-5.685.252-8.982,6.14a15.043,15.043,0,0,1-3.583,4.357l-.2.168a5.42,5.42,0,0,1-5.08.925,4.9,4.9,0,0,1-3.314-3.415l-.1-.4a4.211,4.211,0,0,1,.824-3.347,3.836,3.836,0,0,1,3.886-1.749,3.214,3.214,0,0,1,2.422,2.523,2.187,2.187,0,0,1-.421,1.733,1.976,1.976,0,0,1-2.019.976,1.567,1.567,0,0,1-1.194-1.245,1.019,1.019,0,0,1,.791-1.194l-.5-2.54a3.621,3.621,0,0,0-2.86,4.222,4.226,4.226,0,0,0,3.2,3.3,4.607,4.607,0,0,0,4.71-1.968,4.772,4.772,0,0,0,.892-3.768A5.81,5.81,0,0,0,418.978,1.6,6.434,6.434,0,0,0,412.4,4.322a6.794,6.794,0,0,0-1.312,5.4,5.684,5.684,0,0,0,.135.572,7.555,7.555,0,0,0,5.046,5.214,8.082,8.082,0,0,0,7.553-1.379l.168-.135a18.016,18.016,0,0,0,4.239-5.13c1.867-3.314,4.222-4.34,5.6-4.659a3.065,3.065,0,0,0-1.194,1.514,3.337,3.337,0,0,0,.942,3.549,3.486,3.486,0,0,0,2.708.976A4.108,4.108,0,0,0,440,5.869a4.678,4.678,0,0,0-1.682-3.263,4.728,4.728,0,0,0-3.078-1.127Zm.757,6.207a.925.925,0,0,1-.589-.252c-.286-.286-.4-.572-.32-.807a.465.465,0,0,1,.387-.3l-.185-2.237a2.08,2.08,0,0,1,1.3.5,2.148,2.148,0,0,1,.774,1.5,1.472,1.472,0,0,1-1.329,1.6H436Z" transform="translate(-410.968 10.43)" fill="#fff"/>
          <path id="Path_23" data-name="Path 23" d="M418.776,8.52a8.557,8.557,0,0,0-2.506.387,7.586,7.586,0,0,0-5.046,5.214c-.05.185-.1.387-.135.572a6.8,6.8,0,0,0,1.312,5.4,6.464,6.464,0,0,0,6.577,2.725,5.81,5.81,0,0,0,4.407-4.558,4.787,4.787,0,0,0-.892-3.768,4.618,4.618,0,0,0-4.71-1.968,4.2,4.2,0,0,0-3.2,3.3,3.613,3.613,0,0,0,2.86,4.222l.5-2.54a1.019,1.019,0,0,1-.791-1.194,1.567,1.567,0,0,1,1.194-1.245,2.016,2.016,0,0,1,2.019.976,2.186,2.186,0,0,1,.42,1.733,3.214,3.214,0,0,1-2.422,2.523,3.836,3.836,0,0,1-3.886-1.749,4.148,4.148,0,0,1-.824-3.347c.034-.135.05-.269.084-.4a4.895,4.895,0,0,1,3.314-3.431,5.465,5.465,0,0,1,5.08.925l.168.135a15.479,15.479,0,0,1,3.616,4.39c3.314,5.921,8.209,6.089,9,6.14a4.826,4.826,0,0,0,3.4-1.11A4.746,4.746,0,0,0,440,18.562a4.088,4.088,0,0,0-3.717-4.373,3.548,3.548,0,0,0-2.708.976,3.269,3.269,0,0,0-.942,3.549,3.22,3.22,0,0,0,1.194,1.514c-1.362-.32-3.734-1.346-5.6-4.659a17.947,17.947,0,0,0-4.273-5.164l-.151-.118A8.069,8.069,0,0,0,418.76,8.5ZM435.345,20.4l.185-2.237a.446.446,0,0,1-.387-.3c-.084-.235.017-.521.32-.807a.914.914,0,0,1,.639-.252,1.5,1.5,0,0,1,1.329,1.6,2.148,2.148,0,0,1-.774,1.5,2.08,2.08,0,0,1-1.3.5Z" transform="translate(-410.968 -8.503)" fill="#fff"/>
        </g>
        <path id="Path_5951" data-name="Path 5951" d="M0,2.59H650.235V0H0Z" transform="translate(795.981 14.163)" fill="#fff"/>
        <g id="Group_28" data-name="Group 28" transform="translate(0 2.271)">
          <g id="Group_27" data-name="Group 27">
            <path id="Path_24" data-name="Path 24" d="M11.226,6.689c-4.458,0-9.3,3.078-9.538,3.23l-1.7,1.093,1.7,1.093c.252.168,6.342,4.037,11.136,3.078h0a4.24,4.24,0,0,0,0-8.343A8.434,8.434,0,0,0,11.226,6.689ZM5.1,11.012c2.069-.992,5.013-2.069,7.216-1.632a1.658,1.658,0,0,1,0,3.263h0C10.1,13.081,7.173,12.022,5.1,11.012Z" transform="translate(0.01 2.175)" fill="#fff"/>
            <path id="Path_25" data-name="Path 25" d="M14.545,1.446a4.779,4.779,0,0,0-4.76,4.407A4.088,4.088,0,0,0,13.5,10.226a3.612,3.612,0,0,0,2.708-.976A3.269,3.269,0,0,0,17.152,5.7a3.22,3.22,0,0,0-1.194-1.514,8.8,8.8,0,0,1,5.585,4.659,17.947,17.947,0,0,0,4.273,5.164l.151.118a8.082,8.082,0,0,0,7.553,1.379,7.586,7.586,0,0,0,5.046-5.214c.05-.185.1-.387.135-.572a6.764,6.764,0,0,0-1.312-5.4A6.464,6.464,0,0,0,30.811,1.6,5.832,5.832,0,0,0,26.4,6.156,4.787,4.787,0,0,0,27.3,9.924a4.619,4.619,0,0,0,4.71,1.968,4.2,4.2,0,0,0,3.2-3.3,3.613,3.613,0,0,0-2.86-4.222l-.5,2.54a1.019,1.019,0,0,1,.791,1.194,1.567,1.567,0,0,1-1.194,1.245,1.987,1.987,0,0,1-2.019-.976,2.187,2.187,0,0,1-.421-1.733A3.214,3.214,0,0,1,31.417,4.12,3.836,3.836,0,0,1,35.3,5.87a4.148,4.148,0,0,1,.824,3.347,3.54,3.54,0,0,1-.1.4,4.872,4.872,0,0,1-3.314,3.415,5.465,5.465,0,0,1-5.08-.925l-.168-.135a15.479,15.479,0,0,1-3.617-4.39c-3.314-5.921-8.158-6.156-9-6.14h-.32Zm-.757,6.207h-.05a1.5,1.5,0,0,1-1.329-1.6,2.148,2.148,0,0,1,.774-1.5,2.08,2.08,0,0,1,1.3-.5L14.293,6.29a.446.446,0,0,1,.387.3c.084.235-.017.521-.32.807a.925.925,0,0,1-.589.252Z" transform="translate(6.683 10.43)" fill="#fff"/>
            <path id="Path_26" data-name="Path 26" d="M31.023,8.51a7.972,7.972,0,0,0-5.046,1.783l-.168.135a18.016,18.016,0,0,0-4.239,5.13c-1.867,3.314-4.222,4.34-5.6,4.659a3.1,3.1,0,0,0,1.194-1.5,3.306,3.306,0,0,0-.942-3.549,3.508,3.508,0,0,0-2.708-.976,4.1,4.1,0,0,0-3.717,4.373,4.815,4.815,0,0,0,1.682,3.28,4.684,4.684,0,0,0,3.381,1.11h.017c.824,0,5.686-.252,8.982-6.14a15.044,15.044,0,0,1,3.583-4.357l.2-.168a5.42,5.42,0,0,1,5.08-.925,4.9,4.9,0,0,1,3.314,3.415l.1.4a4.159,4.159,0,0,1-.841,3.347,3.825,3.825,0,0,1-3.886,1.749,3.214,3.214,0,0,1-2.422-2.523,2.172,2.172,0,0,1,.421-1.733,2,2,0,0,1,2.019-.976A1.567,1.567,0,0,1,32.621,16.3a1.019,1.019,0,0,1-.791,1.194l.5,2.54a3.621,3.621,0,0,0,2.86-4.222,4.2,4.2,0,0,0-3.2-3.3,4.619,4.619,0,0,0-4.71,1.968,4.772,4.772,0,0,0-.892,3.768A5.81,5.81,0,0,0,30.8,22.808a6.434,6.434,0,0,0,6.577-2.725,6.8,6.8,0,0,0,1.312-5.4,5.692,5.692,0,0,0-.135-.572A7.61,7.61,0,0,0,33.512,8.88a8,8,0,0,0-2.49-.387ZM14.471,20.386a1.988,1.988,0,0,1-1.3-.5,2.182,2.182,0,0,1-.774-1.5,1.471,1.471,0,0,1,1.329-1.6.887.887,0,0,1,.639.252c.286.286.4.572.3.807a.465.465,0,0,1-.387.3Z" transform="translate(6.69 -8.493)" fill="#fff"/>
          </g>
          <path id="Path_5952" data-name="Path 5952" d="M-240,2.59H410.479V0H-240Z" transform="translate(279.193 11.892)" fill="#fff"/>
        </g>
      </g>
    </g>
  </g>
</svg>
